<svg xmlns="http://www.w3.org/2000/svg" viewBox="0 0 50 50"><path d="M5 0h40c2.8 0 5 2.2 5 5v40c0 2.8-2.2 5-5 5H5c-2.8 0-5-2.2-5-5V5c0-2.8 2.2-5 5-5z" fill="#54b947"/><path d="M11.3 17.7c-.7 0-1.3.4-1.9 1.1v4.1c.5.2.8.3 1.5.3 1.1 0 2-.9 2-3 .1-1.7-.6-2.5-1.6-2.5zm-5.2-2.8H9l.2 1.4c.8-.8 1.7-1.7 3.1-1.7 2.2 0 3.9 1.7 3.9 5.4 0 4.1-2.2 5.8-4.6 5.8-.8 0-1.5-.1-2.3-.4v3.1l-3.3.6c.1.1.1-14.2.1-14.2zm16 2c-.9 0-1.6.8-1.7 2.5h3.4c-.1-1.7-.7-2.5-1.7-2.5zm4.8 4.3h-6.5c.2 1.7 1.2 2.4 2.7 2.4 1.2 0 2.4-.4 3.6-1.1l.3 2.3c-1.2.8-2.6 1.2-4.3 1.2-3.3 0-5.6-1.7-5.6-5.6 0-3.5 2.2-5.7 5.1-5.7 3.3 0 4.8 2.5 4.8 5.6 0 .4 0 .7-.1.9zm5.8 4.7c-2.3 0-3.9-.8-3.9-3.6v-4.7h-1.4v-2.7h1.4v-3.2l3.3-.5v3.7h2.5v2.7h-2.5v4.1c0 .9.4 1.3 1.3 1.3.3 0 .6 0 .8-.1l.4 2.7c-.5.3-1 .3-1.9.3m7.1.1c-1.7 0-3.3-.5-4.5-1.1l.4-2.5c1.3.8 2.9 1.3 4.1 1.3.9 0 1.4-.3 1.4-.8 0-.6-.3-.8-1.8-1.2-2.7-.7-3.9-1.4-3.9-3.5 0-2 1.5-3.4 4.2-3.4 1.5 0 2.9.3 4 .8l-.4 2.5c-1.2-.6-2.5-1-3.6-1-.8 0-1.2.3-1.2.7 0 .4.3.7 1.8 1.1 2.9.8 3.9 1.5 3.9 3.5.1 2.3-1.5 3.6-4.4 3.6" fill="#fffffe"/><path d="M9.6 33.4c-1.2.2-1.5.6-1.5 1.1 0 .4.2.6.6.6.3 0 .7-.2 1-.4-.1-.1-.1-1.3-.1-1.3zm.2 2.8l-.1-.7c-.5.5-1 .8-1.8.8-.9 0-1.6-.6-1.6-1.6 0-1.4 1-2 3.3-2.2v-.1c0-.5-.3-.7-.9-.7-.6 0-1.3.2-1.9.4l-.2-1.3c.7-.3 1.5-.5 2.4-.4 1.6 0 2.4.5 2.4 2v3.9l-1.6-.1zm4.7.1c-1.2 0-2.1-.5-2.1-1.9v-2.5h-.8v-1.5h.8v-1.8l1.8-.3v2.1h1.3v1.5h-1.3v2.2c0 .5.2.7.7.7.2 0 .3 0 .4-.1l.2 1.5c-.2 0-.5.1-1 .1m7.1-.1v-3.6c0-.4-.2-.7-.6-.7-.3 0-.7.2-1 .5v3.8h-1.8v-8.6l1.8-.3v3.8c.5-.5 1-.8 1.7-.8 1.1 0 1.6.7 1.6 1.8v4.1h-1.7m5-4.4c-.7 0-1.1.6-1.1 1.5s.4 1.6 1.1 1.6c.7 0 1.1-.6 1.1-1.6s-.4-1.6-1.1-1.5zm0 4.5c-1.6 0-2.8-1.1-2.8-3s1.2-3 2.8-3c1.6 0 2.8 1.2 2.8 3 0 1.9-1.2 3-2.8 3zm9.8-.1v-3.6c0-.4-.2-.7-.6-.7-.3 0-.6.2-.9.5v3.8h-1.8v-3.6c0-.4-.2-.7-.6-.7-.3 0-.6.2-.9.5v3.8h-1.8v-5.8h1.6l.1.8c.5-.5 1.1-.9 1.8-.9.8 0 1.2.4 1.4.9.5-.5 1.1-.9 1.8-.9 1.1 0 1.6.7 1.6 1.8v4.1h-1.7m4.9-4.8c-.5 0-.8.4-.9 1.3h1.8c0-.8-.4-1.3-.9-1.3zm2.6 2.3h-3.5c.1.9.6 1.3 1.4 1.3.6 0 1.3-.2 1.9-.6l.2 1.3c-.6.4-1.4.7-2.3.7-1.7 0-3-.9-3-3 0-1.9 1.2-3 2.7-3 1.8 0 2.6 1.3 2.6 3v.3z" fill="#165830"/></svg>